# xmcd CD database file
# Copyright (C) 1997 Ti Kan
# 
# Track frame offsets:
#     150
#     11782
#     24046
#     35370
#     45592
#     58096
#     68123
#     86375
#     97330
#     110082
#     122477
#     133714
#     146186
#     158398
#     170525
#     187310
#     199957
#     209749
# 
# Disc length: 2956 seconds
# 
# Revision: 1
# Processed by: cddbd v1.4PL0 Copyright (c) Steve Scherf et al.
# Submitted via: DiscPlay 4.0.3
# 
DISCID=090b8a12
DTITLE=John Lee Hooker - Boogie Man
DYEAR=1900
DGENRE=
TTITLE0=Boogie Chillen 2
TTITLE1=I'm In The Mood
TTITLE2=Boom Boom
TTITLE3=Dimples
TTITLE4=Hobo Blues
TTITLE5=Dusty Road
TTITLE6=House Rent Boogie
TTITLE7=No Shoes
TTITLE8=I'm So Excited
TTITLE9=Baby Lee
TTITLE10=Bottle Up And Go
TTITLE11=Drug Store Woman
TTITLE12=Frisco
TTITLE13=Whiskey And Wimmen
TTITLE14=Process
TTITLE15=Trouble Blues
TTITLE16=Onions
TTITLE17=Good Rockin' Mama
EXTD=
EXTT0=
EXTT1=
EXTT2=
EXTT3=
EXTT4=
EXTT5=
EXTT6=
EXTT7=
EXTT8=
EXTT9=
EXTT10=
EXTT11=
EXTT12=
EXTT13=
EXTT14=
EXTT15=
EXTT16=
EXTT17=
PLAYORDER=
